<svg width="24" height="24" viewBox="0 0 24 24" fill="none" xmlns="http://www.w3.org/2000/svg">
<g clip-path="url(#clip0_2367_51895)">
<path d="M12 4.62302C14.4033 4.62302 14.6876 4.63231 15.6369 4.67553C16.5143 4.71555 16.9909 4.86202 17.3081 4.98527C17.6995 5.12939 18.0536 5.35952 18.3442 5.6587C18.6433 5.9493 18.8735 6.30335 19.0176 6.69475C19.1408 7.01199 19.2873 7.48857 19.3273 8.36599C19.3706 9.31522 19.3798 9.5996 19.3798 12.0029C19.3798 14.4061 19.3706 14.6905 19.3273 15.6397C19.2873 16.5172 19.1408 16.9937 19.0176 17.311C18.8677 17.699 18.6383 18.0514 18.3442 18.3456C18.05 18.6398 17.6976 18.8691 17.3095 19.019C16.9923 19.1423 16.5157 19.2888 15.6383 19.3288C14.6894 19.372 14.4047 19.3813 12.0014 19.3813C9.59817 19.3813 9.31343 19.372 8.36456 19.3288C7.48714 19.2888 7.01056 19.1423 6.69332 19.019C6.30192 18.8749 5.94787 18.6448 5.65727 18.3456C5.35809 18.055 5.12796 17.7009 4.98384 17.3096C4.86059 16.9923 4.71412 16.5157 4.6741 15.6383C4.63087 14.6891 4.62159 14.4047 4.62159 12.0014C4.62159 9.59817 4.63087 9.3138 4.6741 8.36456C4.71412 7.48714 4.86059 7.01056 4.98384 6.69332C5.12796 6.30192 5.35809 5.94787 5.65727 5.65727C5.94787 5.35809 6.30192 5.12796 6.69332 4.98385C7.01056 4.86059 7.48714 4.71412 8.36456 4.6741C9.31379 4.63088 9.59817 4.62159 12.0014 4.62159L12 4.62302ZM12.0014 3C9.55708 3 9.25056 3.01036 8.29061 3.0543C7.33066 3.09825 6.67724 3.25151 6.10456 3.47408C5.50407 3.70003 4.96007 4.0542 4.51048 4.51191C4.05341 4.96168 3.69986 5.50566 3.47444 6.10599C3.25008 6.67867 3.09789 7.33281 3.0543 8.29061C3.01072 9.24842 3 9.55709 3 12.0014C3 14.4458 3.01036 14.7523 3.0543 15.7123C3.09825 16.6722 3.25008 17.3242 3.47265 17.8969C3.6986 18.4974 4.05277 19.0414 4.51048 19.491C4.96016 19.9487 5.50412 20.3029 6.10456 20.5292C6.67617 20.7514 7.33138 20.9036 8.28918 20.9475C9.24698 20.9914 9.55565 21.0014 12 21.0014C14.4443 21.0014 14.7509 20.9911 15.7108 20.9475C16.6708 20.9039 17.3228 20.7514 17.8954 20.5292C18.4933 20.2979 19.0362 19.9442 19.4895 19.491C19.9428 19.0377 20.2964 18.4947 20.5277 17.8969C20.7499 17.3253 20.9021 16.6701 20.9461 15.7123C20.99 14.7545 21 14.4458 21 12.0014C21 9.55709 20.9896 9.25056 20.9461 8.29061C20.9025 7.33066 20.7499 6.67867 20.5277 6.10599C20.3015 5.50555 19.9472 4.96159 19.4895 4.51191C19.0397 4.05484 18.4958 3.70129 17.8954 3.47587C17.3228 3.25151 16.6686 3.09932 15.7108 3.05573C14.753 3.01215 14.4443 3.00143 12 3.00143L12.0014 3Z" fill="#30363C"/>
<path d="M11.9998 7.37891C11.0856 7.37891 10.192 7.64998 9.43197 8.15785C8.67191 8.66572 8.07952 9.38757 7.72971 10.2321C7.37991 11.0767 7.2884 12.006 7.46676 12.9025C7.64513 13.7991 8.08535 14.6226 8.73176 15.269C9.37817 15.9153 10.2017 16.3555 11.0983 16.5338C11.9949 16.7121 12.9242 16.6205 13.7687 16.2706C14.6132 15.9208 15.335 15.3283 15.8428 14.5682C16.3506 13.8081 16.6217 12.9145 16.6216 12.0004C16.6216 11.3934 16.5021 10.7924 16.2699 10.2317C16.0376 9.67093 15.6972 9.16143 15.268 8.73227C14.8388 8.30311 14.3292 7.96271 13.7685 7.7305C13.2077 7.49828 12.6067 7.37881 11.9998 7.37891ZM11.9998 15.0003C11.4062 15.0003 10.826 14.8243 10.3325 14.4945C9.83901 14.1648 9.45437 13.6961 9.22724 13.1477C9.0001 12.5994 8.94067 11.996 9.05647 11.4138C9.17226 10.8317 9.45807 10.297 9.87776 9.87731C10.2975 9.45762 10.8322 9.1718 11.4143 9.05601C11.9964 8.94022 12.5998 8.99965 13.1482 9.22678C13.6965 9.45392 14.1652 9.83856 14.495 10.3321C14.8247 10.8256 15.0007 11.4058 15.0007 11.9993C15.0007 12.7952 14.6845 13.5585 14.1218 14.1213C13.559 14.6841 12.7957 15.0003 11.9998 15.0003Z" fill="#30363C"/>
<path d="M16.8046 8.27715C17.4011 8.27715 17.8846 7.79363 17.8846 7.19717C17.8846 6.60071 17.4011 6.11719 16.8046 6.11719C16.2081 6.11719 15.7246 6.60071 15.7246 7.19717C15.7246 7.79363 16.2081 8.27715 16.8046 8.27715Z" fill="#30363C"/>
</g>
<defs>
<clipPath id="clip0_2367_51895">
<rect width="18" height="18" fill="white" transform="translate(3 3)"/>
</clipPath>
</defs>
</svg>
