<svg width="24" height="24" viewBox="0 0 24 24" fill="none" xmlns="http://www.w3.org/2000/svg">
<g clip-path="url(#clip0_2367_51912)">
<path d="M19.7022 8.0128C19.714 8.18343 19.714 8.35405 19.714 8.52625C19.714 13.7732 15.7196 19.8245 8.41578 19.8245V19.8213C6.25819 19.8245 4.14543 19.2064 2.3291 18.0411C2.64283 18.0789 2.95813 18.0978 3.27422 18.0985C5.06225 18.1001 6.79916 17.5002 8.20584 16.3954C6.50666 16.3632 5.01664 15.2553 4.49612 13.6379C5.09134 13.7527 5.70465 13.7291 6.28886 13.5695C4.43636 13.1952 3.1036 11.5676 3.1036 9.67738C3.1036 9.66008 3.1036 9.64357 3.1036 9.62706C3.65557 9.93449 4.2736 10.1051 4.90578 10.124C3.161 8.95792 2.62317 6.63679 3.6768 4.82204C5.69285 7.30278 8.66739 8.81089 11.8605 8.9705C11.5405 7.59135 11.9777 6.14615 13.0093 5.17665C14.6086 3.67327 17.1239 3.75032 18.6273 5.34885C19.5166 5.17351 20.369 4.8472 21.149 4.38486C20.8525 5.30403 20.2321 6.08482 19.4034 6.58097C20.1905 6.48818 20.9595 6.27746 21.6836 5.95587C21.1505 6.75474 20.479 7.4506 19.7022 8.0128Z" fill="#30363C"/>
</g>
<defs>
<clipPath id="clip0_2367_51912">
<rect width="19.5" height="16.0403" fill="white" transform="translate(2.25 3.98047)"/>
</clipPath>
</defs>
</svg>
