<svg width="24" height="24" viewBox="0 0 24 24" fill="none" xmlns="http://www.w3.org/2000/svg">
<g clip-path="url(#clip0_2367_51907)">
<path d="M20.6236 7.98C20.417 7.20068 19.8065 6.58705 19.0323 6.37841C17.6291 6 12 6 12 6C12 6 6.37091 6 4.96773 6.37841C4.19352 6.58705 3.58295 7.20068 3.37636 7.98C3 9.39341 3 12.3409 3 12.3409C3 12.3409 3 15.2884 3.37636 16.7018C3.58295 17.4811 4.19352 18.0948 4.96773 18.3034C6.37091 18.6818 12 18.6818 12 18.6818C12 18.6818 17.6291 18.6818 19.0323 18.3034C19.8065 18.0948 20.417 17.4811 20.6236 16.7018C21 15.2884 21 12.3409 21 12.3409C21 12.3409 21 9.39341 20.6236 7.98Z" fill="#30363C"/>
<path d="M10.1592 15.017L14.8637 12.3405L10.1592 9.66406V15.017Z" fill="white"/>
</g>
<defs>
<clipPath id="clip0_2367_51907">
<rect width="18" height="12.6818" fill="white" transform="translate(3 6)"/>
</clipPath>
</defs>
</svg>
